Coordinates
version=1
nRows=22
nColumns=24
inDegrees=yes

Units are S.I. units (second, meters, Newtons, ...)
Angles are in degrees.

endheader
time	pelvis_tilt	pelvis_list	pelvis_rotation	pelvis_tx	pelvis_ty	pelvis_tz	hip_flexion_r	hip_adduction_r	hip_rotation_r	knee_angle_r	ankle_angle_r	subtalar_angle_r	mtp_angle_r	hip_flexion_l	hip_adduction_l	hip_rotation_l	knee_angle_l	ankle_angle_l	subtalar_angle_l	mtp_angle_l	lumbar_extension	lumbar_bending	lumbar_rotation
      1.42883333	     -0.48394753	      0.39812396	    -17.42992724	      0.92111213	      0.98517095	      0.28720558	    -16.07396618	     -1.91946821	      5.68890957	    -13.96877620	     13.16587133	      3.78559299	     18.68271423	     22.12231744	     -3.42138044	    -14.97596179	      6.44585777	      3.09832225	    -11.11407716	      7.58609852	     -1.75153220	      0.23640657	     12.47612451
      1.43300000	     -0.40539442	      0.52869809	    -17.57514790	      0.92700480	      0.98473245	      0.28705379	    -16.20920187	     -2.23029637	      5.62041582	    -14.41714585	     13.03389734	      3.89457672	     18.74824730	     22.09546017	     -3.29857964	    -15.09253643	      5.94488361	      3.12947822	    -11.24169253	      7.58889581	     -1.76343464	      0.02047626	     12.68022648
      1.43716667	     -0.35221879	      0.64064055	    -17.69516173	      0.93292842	      0.98429190	      0.28685759	    -16.32856248	     -2.50538347	      5.56951361	    -14.85141302	     12.81928155	      3.95963612	     18.85565413	     22.08276868	     -3.18851129	    -15.07020235	      5.43826124	      3.11829420	    -11.53982861	      7.60473302	     -1.75215848	     -0.15305759	     12.80166503
      1.44133333	     -0.28470134	      0.76418406	    -17.81624109	      0.93888914	      0.98389671	      0.28665411	    -16.44689317	     -2.79762615	      5.51300205	    -15.30746244	     12.57921596	      4.01278584	     19.03278773	     22.03882722	     -3.05510355	    -15.01004500	      4.94160439	      3.02379281	    -11.90836371	      7.63556227	     -1.75236841	     -0.34439325	     12.91711741
      1.44550000	     -0.22005716	      0.90555071	    -17.92933191	      0.94490800	      0.98352284	      0.28645711	    -16.55812293	     -3.10122461	      5.47879623	    -15.76209480	     12.28443291	      4.00944365	     19.14660805	     22.00496986	     -2.90201136	    -14.98294058	      4.42061819	      2.93637577	    -12.16897416	      7.65982412	     -1.73898656	     -0.56891815	     12.97110350
      1.44966667	     -0.14075951	      1.05485837	    -18.04049339	      0.95094949	      0.98319381	      0.28620008	    -16.64678406	     -3.42731029	      5.36337824	    -16.28238000	     12.01829825	      4.11411313	     19.43663052	     21.93397532	     -2.72092566	    -14.90156046	      3.93757003	      2.67583628	    -12.62046030	      7.72044223	     -1.73508238	     -0.77287394	     13.11929519
      1.45383333	     -0.06303731	      1.22077505	    -18.14585974	      0.95703972	      0.98288590	      0.28593922	    -16.72272747	     -3.76482769	      5.26661552	    -16.81314505	     11.69214425	      4.16439317	     19.98077729	     21.86645188	     -2.51826733	    -14.78402309	      3.45237963	      2.38085446	    -13.09635745	      7.84952796	     -1.72502405	     -1.01208010	     13.21356156
      1.45800000	      0.00370264	      1.39102006	    -18.22603536	      0.96318527	      0.98261168	      0.28568303	    -16.79649613	     -4.08700056	      5.19293215	    -17.32368524	     11.28453669	      4.08469830	     20.07119968	     21.84598594	     -2.31550502	    -14.80309289	      2.87980904	      2.19661330	    -13.25330001	      7.87090303	     -1.67117015	     -1.26389317	     13.22580406
      1.46216667	      0.08087129	      1.59854413	    -18.32516692	      0.96935236	      0.98235909	      0.28536071	    -16.81366771	     -4.47270794	      5.04042882	    -17.93770970	     10.94958289	      4.23685807	     20.63167237	     21.76410881	     -2.05128095	    -14.66653463	      2.44073649	      1.73499372	    -13.82644422	      8.00554279	     -1.65190510	     -1.53482156	     13.37647801
      1.46633333	      0.14475860	      1.81459905	    -18.38952276	      0.97560045	      0.98214919	      0.28507958	    -16.84963356	     -4.83417963	      4.95698471	    -18.48543372	     10.44439059	      4.14411778	     20.82417586	     21.73930256	     -1.78775664	    -14.67366759	      1.90084712	      1.41512037	    -14.00160703	      8.05326964	     -1.58046650	     -1.85002013	     13.37532875
      1.47050000	      0.22319255	      2.02638778	    -18.44206607	      0.98182604	      0.98197507	      0.28470498	    -16.85013339	     -5.20631758	      4.77812422	    -19.11849329	      9.91553801	      4.06037239	     27.31163473	     21.68467784	     -1.50546696	    -14.57892875	      1.40496235	      0.95474092	    -14.44102792	      9.72014556	     -1.53679267	     -2.12708577	     13.38158123
      1.47466667	      0.29373685	      2.26287265	    -18.50010835	      0.98808441	      0.98183403	      0.28433975	    -16.81368093	     -5.59789640	      4.62013760	    -19.79834808	      9.41980405	      4.08367364	     27.36609297	     21.64494757	     -1.20310548	    -14.54835736	      0.90614056	      0.48466987	    -14.75086020	      9.74150468	     -1.47365354	     -2.42989894	     13.46957950
      1.47883333	      0.36151347	      2.51244404	    -18.52457088	      0.99438267	      0.98171893	      0.28393479	    -16.76647728	     -5.98905236	      4.44994773	    -20.48998835	      8.87675406	      4.08007000	     27.51402699	     21.61712905	     -0.87302273	    -14.45096976	      0.39434667	      0.01750293	    -15.16568635	      9.78907471	     -1.39631567	     -2.76388628	     13.49579131
      1.48300000	      0.42145535	      2.77228219	    -18.54741345	      1.00069278	      0.98164819	      0.28351454	    -16.67553606	     -6.38598149	      4.28110784	    -21.23661135	      8.27624829	      4.04332237	     27.69190311	     21.59054193	     -0.53380721	    -14.39697620	     -0.09898905	     -0.47128643	    -15.43029022	      9.83383737	     -1.30870993	     -3.08935204	     13.49444385
      1.48716667	      0.49304248	      3.04235293	    -18.53376627	      1.00704556	      0.98163511	      0.28308342	    -16.60479281	     -6.77842282	      4.11511808	    -21.96502121	      7.59731629	      3.95082617	     27.77753660	     21.58468553	     -0.17783029	    -14.37454775	     -0.65741839	     -0.85560561	    -15.56947684	      9.85481515	     -1.22911418	     -3.46223424	     13.48961629
      1.49133333	      0.52942926	      3.32499636	    -18.51053493	      1.01335443	      0.98158729	      0.28256641	    -16.42879257	     -7.18016105	      3.89396533	    -22.81608238	      6.98549473	      3.97956422	     28.20569011	     21.59803941	      0.20051159	    -14.21013742	     -1.15797718	     -1.39763452	    -16.06636633	      9.95395966	     -1.11006850	     -3.80644221	     13.46473240
      1.49550000	      0.61021811	      3.60718595	    -18.47963237	      1.01972941	      0.98167665	      0.28209156	    -16.31195854	     -7.57989250	      3.72769414	    -23.63332687	      6.21070691	      3.84145196	     28.32094015	     21.57838308	      0.58032690	    -14.19765109	     -1.70448902	     -1.75470776	    -16.11710369	      9.97858646	     -1.03765227	     -4.18133684	     13.44509496
      1.49966667	      0.67088951	      3.90205201	    -18.43114060	      1.02607422	      0.98175207	      0.28153358	    -16.12033705	     -7.99394826	      3.49814763	    -24.53564672	      5.42619834	      3.71228215	     33.49576879	     21.58435665	      0.98090727	    -14.10134913	     -2.24482837	     -2.19653027	    -16.40657118	     11.06950801	     -0.94117093	     -4.54668976	     13.38983025
      1.50383333	      0.75238246	      4.18034865	    -18.34868979	      1.03241565	      0.98190860	      0.28096862	    -15.95418234	     -8.37394283	      3.29402393	    -25.45179724	      4.62383680	      3.57717725	     33.50136660	     21.58968337	      1.37088549	    -14.06926963	     -2.84907060	     -2.48952591	    -16.47464856	     11.07286460	     -0.86793708	     -4.90936273	     13.36003096
      1.50800000	      0.79012934	      4.48997743	    -18.26697759	      1.03877116	      0.98204215	      0.28039452	    -15.70059513	     -8.77034233	      3.12330034	    -26.42278381	      3.78898669	      3.47884394	     33.53118932	     21.62958314	      1.78311211	    -13.98442284	     -3.41624779	     -2.81177646	    -16.57295287	     11.07988613	     -0.75549465	     -5.30624048	     13.29255838
      1.51216667	      0.86840340	      4.77434217	    -18.16592455	      1.04509552	      0.98226142	      0.27976550	    -15.46690260	     -9.15270668	      2.91620302	    -27.44651256	      2.94826396	      3.34061716	     33.55834577	     21.63432313	      2.18883971	    -13.92877334	     -4.01798871	     -3.05065104	    -16.67320473	     11.08523328	     -0.68157713	     -5.66422417	     13.23831209
      1.51633333	      0.84953273	      5.08173862	    -18.06868664	      1.05136580	      0.98238111	      0.27912236	    -15.07329783	     -9.52416838	      2.77361766	    -28.55260510	      2.11229610	      3.23585526	     33.69097641	     21.73340067	      2.59078895	    -13.78505694	     -4.59068069	     -3.35691342	    -16.88948609	     11.10536810	     -0.50972801	     -6.02096230	     13.11122465
